{"asset":{"version":"2.0","generator":"THREE.GLTFExporter r185"},"scenes":[{"name":"AuxScene","nodes":[0]}],"scene":0,"nodes":[{"name":"gt","children":[1]},{"name":"body","mesh":0}],"bufferViews":[{"buffer":0,"byteOffset":0,"byteLength":9936,"target":34962,"byteStride":12},{"buffer":0,"byteOffset":9936,"byteLength":6624,"target":34962,"byteStride":8},{"buffer":0,"byteOffset":16560,"byteLength":9936,"target":34962,"byteStride":12}],"buffers":[{"byteLength":26496,"uri":"data:application/octet-stream;base64,"}],"accessors":[{"bufferView":0,"componentType":5126,"count":828,"max":[0.9089999794960022,1.3701967000961304,2.3565027713775635],"min":[-0.909000039100647,0.07000000029802322,-2.332989454269409],"type":"VEC3"},{"bufferView":1,"componentType":5126,"count":828,"max":[2.2799999713897705,1.2999999523162842],"min":[-2.332989454269409,-0.7279999852180481],"type":"VEC2"},{"bufferView":2,"componentType":5126,"count":828,"max":[1,0.9994449019432068,0.9429903626441956],"min":[-1,-1,-0.9980525970458984],"type":"VEC3"}],"materials":[{"pbrMetallicRoughness":{"baseColorFactor":[0.55201140150344,0.10702310296918527,0.04231141061442144,1],"metallicFactor":0.06,"roughnessFactor":0.22},"extensions":{"KHR_materials_clearcoat":{"clearcoatFactor":1,"clearcoatRoughnessFactor":0.06}}}],"meshes":[{"primitives":[{"mode":4,"attributes":{"POSITION":0,"TEXCOORD_0":1,"NORMAL":2},"material":0}]}],"extensionsUsed":["KHR_materials_clearcoat"]}