{"asset":{"version":"2.0","generator":"THREE.GLTFExporter r185"},"scenes":[{"name":"AuxScene","nodes":[0]}],"scene":0,"nodes":[{"name":"rally","children":[1]},{"name":"body","mesh":0}],"bufferViews":[{"buffer":0,"byteOffset":0,"byteLength":9216,"target":34962,"byteStride":12},{"buffer":0,"byteOffset":9216,"byteLength":6144,"target":34962,"byteStride":8},{"buffer":0,"byteOffset":15360,"byteLength":9216,"target":34962,"byteStride":12}],"buffers":[{"byteLength":24576,"uri":"data:application/octet-stream;base64,"}],"accessors":[{"bufferView":0,"componentType":5126,"count":768,"max":[0.9179999828338623,1.4701581001281738,2.2349932193756104],"min":[-0.9180000424385071,0.09000000357627869,-2.231929063796997],"type":"VEC3"},{"bufferView":1,"componentType":5126,"count":768,"max":[2.1600000858306885,1.399999976158142],"min":[-2.231929063796997,-0.7459999918937683],"type":"VEC2"},{"bufferView":2,"componentType":5126,"count":768,"max":[1,0.9981685280799866,0.9486833214759827],"min":[-1,-1,-0.9987523555755615],"type":"VEC3"}],"materials":[{"pbrMetallicRoughness":{"baseColorFactor":[0.55201140150344,0.10702310296918527,0.04231141061442144,1],"metallicFactor":0.06,"roughnessFactor":0.22},"extensions":{"KHR_materials_clearcoat":{"clearcoatFactor":1,"clearcoatRoughnessFactor":0.06}}}],"meshes":[{"primitives":[{"mode":4,"attributes":{"POSITION":0,"TEXCOORD_0":1,"NORMAL":2},"material":0}]}],"extensionsUsed":["KHR_materials_clearcoat"]}