{"asset":{"version":"2.0","generator":"THREE.GLTFExporter r185"},"scenes":[{"name":"AuxScene","nodes":[0]}],"scene":0,"nodes":[{"name":"muscle","children":[1]},{"name":"body","mesh":0}],"bufferViews":[{"buffer":0,"byteOffset":0,"byteLength":9936,"target":34962,"byteStride":12},{"buffer":0,"byteOffset":9936,"byteLength":6624,"target":34962,"byteStride":8},{"buffer":0,"byteOffset":16560,"byteLength":9936,"target":34962,"byteStride":12}],"buffers":[{"byteLength":26496,"uri":"data:application/octet-stream;base64,"}],"accessors":[{"bufferView":0,"componentType":5126,"count":828,"max":[0.9449999928474426,1.1901192665100098,2.514327049255371],"min":[-0.9449999332427979,0.05999999865889549,-2.4932663440704346],"type":"VEC3"},{"bufferView":1,"componentType":5126,"count":828,"max":[2.4584360122680664,1.1200000047683716],"min":[-2.4932663440704346,-0.800000011920929],"type":"VEC2"},{"bufferView":2,"componentType":5126,"count":828,"max":[1,0.9993628263473511,0.9805806875228882],"min":[-1,-1,-0.9979252815246582],"type":"VEC3"}],"materials":[{"pbrMetallicRoughness":{"baseColorFactor":[0.55201140150344,0.10702310296918527,0.04231141061442144,1],"metallicFactor":0.06,"roughnessFactor":0.22},"extensions":{"KHR_materials_clearcoat":{"clearcoatFactor":1,"clearcoatRoughnessFactor":0.06}}}],"meshes":[{"primitives":[{"mode":4,"attributes":{"POSITION":0,"TEXCOORD_0":1,"NORMAL":2},"material":0}]}],"extensionsUsed":["KHR_materials_clearcoat"]}