{"asset":{"version":"2.0","generator":"THREE.GLTFExporter r185"},"scenes":[{"name":"AuxScene","nodes":[0]}],"scene":0,"nodes":[{"name":"super","children":[1]},{"name":"body","mesh":0}],"bufferViews":[{"buffer":0,"byteOffset":0,"byteLength":9216,"target":34962,"byteStride":12},{"buffer":0,"byteOffset":9216,"byteLength":6144,"target":34962,"byteStride":8},{"buffer":0,"byteOffset":15360,"byteLength":9216,"target":34962,"byteStride":12}],"buffers":[{"byteLength":24576,"uri":"data:application/octet-stream;base64,"}],"accessors":[{"bufferView":0,"componentType":5126,"count":768,"max":[0.972000002861023,1.0501291751861572,2.3788044452667236],"min":[-0.9719999432563782,0.05000000074505806,-2.334826946258545],"type":"VEC3"},{"bufferView":1,"componentType":5126,"count":768,"max":[2.3788044452667236,1.090000033378601],"min":[-2.334826946258545,-0.8539999723434448],"type":"VEC2"},{"bufferView":2,"componentType":5126,"count":768,"max":[1,0.9986178278923035,0.9701423645019531],"min":[-1,-1,-0.9968153238296509],"type":"VEC3"}],"materials":[{"pbrMetallicRoughness":{"baseColorFactor":[0.55201140150344,0.10702310296918527,0.04231141061442144,1],"metallicFactor":0.06,"roughnessFactor":0.22},"extensions":{"KHR_materials_clearcoat":{"clearcoatFactor":1,"clearcoatRoughnessFactor":0.06}}}],"meshes":[{"primitives":[{"mode":4,"attributes":{"POSITION":0,"TEXCOORD_0":1,"NORMAL":2},"material":0}]}],"extensionsUsed":["KHR_materials_clearcoat"]}